<mxfile host="drawio-plugin" modified="2022-03-10T12:09:47.265Z" agent="5.0 (X11; Linux x86_64) AppleWebKit/537.36 (KHTML, like Gecko) Chrome/87.0.4280.141 Safari/537.36" etag="41Bvqe1np2eQO7RnmNGI" version="15.5.4" type="embed"><diagram id="23iRSUPoRavnBvh4doch" name="Page-1"><mxGraphModel dx="1750" dy="653" grid="1" gridSize="10" guides="1" tooltips="1" connect="1" arrows="1" fold="1" page="1" pageScale="1" pageWidth="827" pageHeight="1169" math="0" shadow="0"><root><mxCell id="0"/><mxCell id="1" parent="0"/><mxCell id="2" value="Calibration" style="rounded=0;whiteSpace=wrap;html=1;" vertex="1" parent="1"><mxGeometry x="190" y="220" width="120" height="60" as="geometry"/></mxCell><mxCell id="3" value="Simulation" style="rounded=0;whiteSpace=wrap;html=1;" vertex="1" parent="1"><mxGeometry x="160" y="360" width="120" height="60" as="geometry"/></mxCell><mxCell id="4" value="Forecasting" style="rounded=0;whiteSpace=wrap;html=1;" vertex="1" parent="1"><mxGeometry x="160" y="440" width="120" height="60" as="geometry"/></mxCell><mxCell id="5" value="launch_hoopla" style="rounded=0;whiteSpace=wrap;html=1;" vertex="1" parent="1"><mxGeometry x="-160" y="390" width="120" height="60" as="geometry"/></mxCell><mxCell id="6" value="config" style="shape=parallelogram;perimeter=parallelogramPerimeter;whiteSpace=wrap;html=1;fixedSize=1;" vertex="1" parent="1"><mxGeometry x="-300" y="290" width="120" height="60" as="geometry"/></mxCell><mxCell id="7" value="" style="endArrow=classic;html=1;rounded=0;" edge="1" parent="1"><mxGeometry width="50" height="50" relative="1" as="geometry"><mxPoint x="-180" y="320" as="sourcePoint"/><mxPoint x="-100" y="380" as="targetPoint"/><Array as="points"><mxPoint x="-100" y="320"/></Array></mxGeometry></mxCell><mxCell id="8" value="run_HOOPLA" style="rounded=0;whiteSpace=wrap;html=1;" vertex="1" parent="1"><mxGeometry x="-30" y="290" width="120" height="60" as="geometry"/></mxCell><mxCell id="9" value="" style="endArrow=classic;html=1;rounded=0;" edge="1" parent="1"><mxGeometry width="50" height="50" relative="1" as="geometry"><mxPoint x="-50" y="320" as="sourcePoint"/><mxPoint x="-80" y="380" as="targetPoint"/><Array as="points"><mxPoint x="-80" y="320"/></Array></mxGeometry></mxCell></root></mxGraphModel></diagram></mxfile>